<svg host="65bd71144e" xmlns="http://www.w3.org/2000/svg" style="background: transparent; background-color: transparent;" xmlns:xlink="http://www.w3.org/1999/xlink" version="1.1" width="572px" height="235px" viewBox="-0.5 -0.5 572 235" content="&lt;mxfile&gt;&lt;diagram id=&quot;mSzHNAb7FseXVj6SExkn&quot; name=&quot;Page-1&quot;&gt;7Vpbb6M4GP01fZzImPtjm7a7I7VStZ3RTp9GBExileAInDTdX7822ASwyQ233VabSjPwYRs453wX21zY0+X2jyJaLe5JgrILCJLthX19AaHnuuxfbnitDa4X1IZ5gZPaZO0Mj/gfJIxAWNc4QWWnISUko3jVNcYkz1FMO7aoKMhLt1lKsu5dV9EcKYbHOMpU6984oYvaGrhgZ/8T4flC3tkC4soyko2FoVxECXlpmeybC3taEELro+V2ijKOncSl7nc7cLV5sALl9JgOti2eg77Kl0MJe1dxmpOc/Xe1oMuMnVnsEG0x/cWOwQS64vSpdemaUwzkyas8yZNLDvtuRGa5xVkmrpe0IM9oSjJSVM9gA/YLQ3alfjr+SIMvKEwlWRexaAXtBkomQUSWiBavrE2BsojiTXesSIhh3rRruj4QzO4CgdCtI2l8lbcB3SFoVMwRFb12qLOD1mPsTBUXel6g4GUTZWvJC1oVZKnQVZB1nqBEcPCywBQ9rqIKiRfmfF32UoZ5C2ZkJS7ydQSEnm9HHruyQQXFTPmXGZ7n7Bolq4YWfg1t9xOjkiA62AHsgGk5AsyXnUf5wrRoOZMHhmnrAL4HXRXcHxVzzPZIeO/76c9xQOthi4pYBDNPJSN1+R+3k5y27PVPR5JX/czQYXWl3USsFhu2paFD8YFz+IAKH98h6+Rl7CZXCd6wwzk/ZPGcYZBlqJAX2cit63s4Ayc7RxKhII21uMcBmqVmcG/0LGOK5SnAexrcHQOwOwrsP7/NeOp5U+mHGqhdFCSODuoAzmxTEoc9iWsCTqPmNtSWbwBr6TsnJ1p5/FQlXZlzh/Ise6pf7ZOnVqrm57t+1ZnseF6aFVVcnfVqUzgy8R4LpzuYHkFSsBsVRvNkmqYw1oaCxJt5ril9hl19+q6izyYst/VpuwbkaSmAmZfneSrzRkpKX8s1Tt3Ucj0UzdVynqLVv35Mv5BQm8B6UKgm4ij8wDjqv00c9T8ujvqKNh/uv38pcXrHitNEFD13Nm1CnIe0WaMu1yvg2WoNVbXCd1JrqKi1mie8jViRNyBWP5wBYEasShYCwUTN+rppsGtCruoEQNWvsnTTwmz8uo2KTOu9Xd17C9vI9G/3JgNMW5MeorXmlQJAGcoNDg5lrpaw1MJ3JGWeB0BrhvWJKHOBIcL6AxmkS639Hq8vFcZYAKFdmiIxeY4Z9iyyqbPqJU4S3l0b1rrLHgbilII9CJQopVulMFLxqTXK4/TuC2AI3xFDNXMqAJbPiMYL8b4rLn5U3GzYy5UydMi9Ct4gicpFg85gfBHxp5dbHdtxHF6uROWq3p5J8ZYPdpVFM5Q9kBJTTLTU3fUazAilbNY/uOrUlwBZ0wzn7PnkxhCoX2zFQVhu53y7arLZJJMlWhLu5UaYD3srT75ak+oCp2Rt1FK3o+aHczZ4mjLUzAbPyVmnt8Hj6gEfvcHjT1zfC5nPVf9a75UnNOtZ1RqBwYL2Q/d6eg4ANQ7wVns9mimugqtm9Xow0CghpYpZV1H8PK/o6U542W8QWHVCpqmnA3AL9sbefvDCpPQnOCZ5OYkzEj+bYdDp7Q/BUJ2m6NbOTSQv6YbKIkU/gQ0Ku0HPUmC3Oqm+KhtmJcnWFF02OxZWZ/+Cw3R6ompqjYNVSaO0krk2zud3KJWJiu8MymeCAxFA9LoSo1S6OiIqmNBIr67W7SHqvLxpN0ok8MQKp+NE4kORaFY1BXsh813+N1Tq9N1xHq/gJMZFvMb094xEBS9zGKZUDH4U7vZ+4IFmzUBXTzii2cgs+U1mK8kz7M93SZqWaGxOlAtyn/3TFONVinvmZyiHB+o74sCM+hwyvf8kmQYWP8aWnFZwVpGpGcifhO9Gp38qnZ/PzRwHTHoTgP6HAEdz4xzwWIPMBP87mj7YQYXOc13NVVbDTNHJTnffftbNdx/Q2jf/Ag==&lt;/diagram&gt;&lt;/mxfile&gt;">
    <defs/>
    <g>
        <g>
            <path d="M 389.5 104 L 390 134" fill="none" stroke="#000099" stroke-miterlimit="10" pointer-events="stroke" style="stroke: light-dark(rgb(0, 0, 153), rgb(218, 218, 255));"/>
        </g>
        <g>
            <rect x="372" y="44" width="70" height="60" rx="9" ry="9" fill="#e1d5e7" stroke="#9673a6" pointer-events="all" style="fill: light-dark(rgb(225, 213, 231), rgb(57, 47, 63)); stroke: light-dark(rgb(150, 115, 166), rgb(149, 119, 163));"/>
        </g>
        <g>
            <g transform="translate(-0.5 -0.5)">
                <switch>
                    <foreignObject style="overflow: visible; text-align: left;" pointer-events="none" width="100%" height="100%" requiredFeatures="http://www.w3.org/TR/SVG11/feature#Extensibility">
                        <div xmlns="http://www.w3.org/1999/xhtml" style="display: flex; align-items: unsafe flex-start; justify-content: unsafe center; width: 68px; height: 1px; padding-top: 51px; margin-left: 373px;">
                            <div style="box-sizing: border-box; font-size: 0; text-align: center; color: #000000; ">
                                <div style="display: inline-block; font-size: 12px; font-family: &quot;Helvetica&quot;; color: light-dark(#000000, #ffffff); line-height: 1.2; pointer-events: all; white-space: normal; word-wrap: normal; ">
                                    eeprom
                                </div>
                            </div>
                        </div>
                    </foreignObject>
                    <text x="407" y="63" fill="light-dark(#000000, #ffffff)" font-family="&quot;Helvetica&quot;" font-size="12px" text-anchor="middle">
                        eeprom
                    </text>
                </switch>
            </g>
        </g>
        <g>
            <rect x="0" y="4" width="310" height="230" rx="13.8" ry="13.8" fill="#f5f5f5" stroke="#666666" pointer-events="all" style="fill: light-dark(rgb(245, 245, 245), rgb(26, 26, 26)); stroke: light-dark(rgb(102, 102, 102), rgb(149, 149, 149));"/>
        </g>
        <g>
            <g transform="translate(-0.5 -0.5)">
                <switch>
                    <foreignObject style="overflow: visible; text-align: left;" pointer-events="none" width="100%" height="100%" requiredFeatures="http://www.w3.org/TR/SVG11/feature#Extensibility">
                        <div xmlns="http://www.w3.org/1999/xhtml" style="display: flex; align-items: unsafe flex-start; justify-content: unsafe center; width: 308px; height: 1px; padding-top: 11px; margin-left: 1px;">
                            <div style="box-sizing: border-box; font-size: 0; text-align: center; color: #333333; ">
                                <div style="display: inline-block; font-size: 12px; font-family: &quot;Helvetica&quot;; color: light-dark(#333333, #c1c1c1); line-height: 1.2; pointer-events: all; white-space: normal; word-wrap: normal; ">
                                    Target SoC/MCU
                                </div>
                            </div>
                        </div>
                    </foreignObject>
                    <text x="155" y="23" fill="#333333" font-family="&quot;Helvetica&quot;" font-size="12px" text-anchor="middle">
                        Target SoC/MCU
                    </text>
                </switch>
            </g>
        </g>
        <g>
            <rect x="250" y="120" width="60" height="40" fill="#dae8fc" stroke="#6c8ebf" pointer-events="all" style="fill: light-dark(rgb(218, 232, 252), rgb(29, 41, 59)); stroke: light-dark(rgb(108, 142, 191), rgb(92, 121, 163));"/>
        </g>
        <g>
            <g transform="translate(-0.5 -0.5)">
                <switch>
                    <foreignObject style="overflow: visible; text-align: left;" pointer-events="none" width="100%" height="100%" requiredFeatures="http://www.w3.org/TR/SVG11/feature#Extensibility">
                        <div xmlns="http://www.w3.org/1999/xhtml" style="display: flex; align-items: unsafe center; justify-content: unsafe center; width: 58px; height: 1px; padding-top: 140px; margin-left: 251px;">
                            <div style="box-sizing: border-box; font-size: 0; text-align: center; color: #000000; ">
                                <div style="display: inline-block; font-size: 12px; font-family: &quot;Helvetica&quot;; color: light-dark(#000000, #ffffff); line-height: 1.2; pointer-events: all; white-space: normal; word-wrap: normal; ">
                                    I2C
                                    <div>
                                        controller
                                    </div>
                                </div>
                            </div>
                        </div>
                    </foreignObject>
                    <text x="280" y="144" fill="light-dark(#000000, #ffffff)" font-family="&quot;Helvetica&quot;" font-size="12px" text-anchor="middle">
                        I2C...
                    </text>
                </switch>
            </g>
        </g>
        <g>
            <rect x="10" y="44" width="230" height="170" rx="15.3" ry="15.3" fill="#d5e8d4" stroke="#82b366" pointer-events="all" style="fill: light-dark(rgb(213, 232, 212), rgb(31, 47, 30)); stroke: light-dark(rgb(130, 179, 102), rgb(68, 110, 44));"/>
        </g>
        <g>
            <g transform="translate(-0.5 -0.5)">
                <switch>
                    <foreignObject style="overflow: visible; text-align: left;" pointer-events="none" width="100%" height="100%" requiredFeatures="http://www.w3.org/TR/SVG11/feature#Extensibility">
                        <div xmlns="http://www.w3.org/1999/xhtml" style="display: flex; align-items: unsafe flex-start; justify-content: unsafe center; width: 228px; height: 1px; padding-top: 51px; margin-left: 11px;">
                            <div style="box-sizing: border-box; font-size: 0; text-align: center; color: #000000; ">
                                <div style="display: inline-block; font-size: 12px; font-family: &quot;Helvetica&quot;; color: light-dark(#000000, #ffffff); line-height: 1.2; pointer-events: all; white-space: normal; word-wrap: normal; ">
                                    U-boot
                                </div>
                            </div>
                        </div>
                    </foreignObject>
                    <text x="125" y="63" fill="light-dark(#000000, #ffffff)" font-family="&quot;Helvetica&quot;" font-size="12px" text-anchor="middle">
                        U-boot
                    </text>
                </switch>
            </g>
        </g>
        <g>
            <path d="M 119 96.5 L 154.85 122.51" fill="none" stroke="#000000" stroke-miterlimit="10" pointer-events="stroke" style="stroke: light-dark(rgb(0, 0, 0), rgb(255, 255, 255));"/>
            <path d="M 159.1 125.59 L 151.37 124.32 L 154.85 122.51 L 155.49 118.65 Z" fill="#000000" stroke="#000000" stroke-miterlimit="10" pointer-events="all" style="fill: light-dark(rgb(0, 0, 0), rgb(255, 255, 255)); stroke: light-dark(rgb(0, 0, 0), rgb(255, 255, 255));"/>
        </g>
        <g>
            <rect x="19" y="79" width="100" height="35" rx="5.25" ry="5.25" fill="#fff2cc" stroke="#d6b656" pointer-events="all" style="fill: light-dark(rgb(255, 242, 204), rgb(40, 29, 0)); stroke: light-dark(rgb(214, 182, 86), rgb(109, 81, 0));"/>
        </g>
        <g>
            <g transform="translate(-0.5 -0.5)">
                <switch>
                    <foreignObject style="overflow: visible; text-align: left;" pointer-events="none" width="100%" height="100%" requiredFeatures="http://www.w3.org/TR/SVG11/feature#Extensibility">
                        <div xmlns="http://www.w3.org/1999/xhtml" style="display: flex; align-items: unsafe center; justify-content: unsafe center; width: 98px; height: 1px; padding-top: 97px; margin-left: 20px;">
                            <div style="box-sizing: border-box; font-size: 0; text-align: center; color: #000000; ">
                                <div style="display: inline-block; font-size: 12px; font-family: &quot;Helvetica&quot;; color: light-dark(#000000, #ffffff); line-height: 1.2; pointer-events: all; white-space: normal; word-wrap: normal; ">
                                    eeprom driver
                                </div>
                            </div>
                        </div>
                    </foreignObject>
                    <text x="69" y="100" fill="light-dark(#000000, #ffffff)" font-family="&quot;Helvetica&quot;" font-size="12px" text-anchor="middle">
                        eeprom driver
                    </text>
                </switch>
            </g>
        </g>
        <g>
            <path d="M 119 139 L 153.63 139" fill="none" stroke="#000000" stroke-miterlimit="10" pointer-events="stroke" style="stroke: light-dark(rgb(0, 0, 0), rgb(255, 255, 255));"/>
            <path d="M 158.88 139 L 151.88 142.5 L 153.63 139 L 151.88 135.5 Z" fill="#000000" stroke="#000000" stroke-miterlimit="10" pointer-events="all" style="fill: light-dark(rgb(0, 0, 0), rgb(255, 255, 255)); stroke: light-dark(rgb(0, 0, 0), rgb(255, 255, 255));"/>
        </g>
        <g>
            <rect x="19" y="124" width="100" height="30" rx="4.5" ry="4.5" fill="#fff2cc" stroke="#d6b656" pointer-events="all" style="fill: light-dark(rgb(255, 242, 204), rgb(40, 29, 0)); stroke: light-dark(rgb(214, 182, 86), rgb(109, 81, 0));"/>
        </g>
        <g>
            <g transform="translate(-0.5 -0.5)">
                <switch>
                    <foreignObject style="overflow: visible; text-align: left;" pointer-events="none" width="100%" height="100%" requiredFeatures="http://www.w3.org/TR/SVG11/feature#Extensibility">
                        <div xmlns="http://www.w3.org/1999/xhtml" style="display: flex; align-items: unsafe center; justify-content: unsafe center; width: 98px; height: 1px; padding-top: 139px; margin-left: 20px;">
                            <div style="box-sizing: border-box; font-size: 0; text-align: center; color: #000000; ">
                                <div style="display: inline-block; font-size: 12px; font-family: &quot;Helvetica&quot;; color: light-dark(#000000, #ffffff); line-height: 1.2; pointer-events: all; white-space: normal; word-wrap: normal; ">
                                    RTC driver
                                </div>
                            </div>
                        </div>
                    </foreignObject>
                    <text x="69" y="143" fill="light-dark(#000000, #ffffff)" font-family="&quot;Helvetica&quot;" font-size="12px" text-anchor="middle">
                        RTC driver
                    </text>
                </switch>
            </g>
        </g>
        <g>
            <path d="M 119 181.5 L 154.73 157.32" fill="none" stroke="#000000" stroke-miterlimit="10" pointer-events="stroke" style="stroke: light-dark(rgb(0, 0, 0), rgb(255, 255, 255));"/>
            <path d="M 159.07 154.38 L 155.24 161.2 L 154.73 157.32 L 151.32 155.4 Z" fill="#000000" stroke="#000000" stroke-miterlimit="10" pointer-events="all" style="fill: light-dark(rgb(0, 0, 0), rgb(255, 255, 255)); stroke: light-dark(rgb(0, 0, 0), rgb(255, 255, 255));"/>
        </g>
        <g>
            <rect x="19" y="164" width="100" height="35" rx="5.25" ry="5.25" fill="#fff2cc" stroke="#d6b656" pointer-events="all" style="fill: light-dark(rgb(255, 242, 204), rgb(40, 29, 0)); stroke: light-dark(rgb(214, 182, 86), rgb(109, 81, 0));"/>
        </g>
        <g>
            <g transform="translate(-0.5 -0.5)">
                <switch>
                    <foreignObject style="overflow: visible; text-align: left;" pointer-events="none" width="100%" height="100%" requiredFeatures="http://www.w3.org/TR/SVG11/feature#Extensibility">
                        <div xmlns="http://www.w3.org/1999/xhtml" style="display: flex; align-items: unsafe center; justify-content: unsafe center; width: 98px; height: 1px; padding-top: 182px; margin-left: 20px;">
                            <div style="box-sizing: border-box; font-size: 0; text-align: center; color: #000000; ">
                                <div style="display: inline-block; font-size: 12px; font-family: &quot;Helvetica&quot;; color: light-dark(#000000, #ffffff); line-height: 1.2; pointer-events: all; white-space: normal; word-wrap: normal; ">
                                    PMIC driver
                                </div>
                            </div>
                        </div>
                    </foreignObject>
                    <text x="69" y="185" fill="light-dark(#000000, #ffffff)" font-family="&quot;Helvetica&quot;" font-size="12px" text-anchor="middle">
                        PMIC driver
                    </text>
                </switch>
            </g>
        </g>
        <g>
            <path d="M 230 140 L 241.76 140" fill="none" stroke="#000000" stroke-width="2" stroke-miterlimit="10" pointer-events="stroke" style="stroke: light-dark(rgb(0, 0, 0), rgb(255, 255, 255));"/>
            <path d="M 247.76 140 L 239.76 144 L 241.76 140 L 239.76 136 Z" fill="#000000" stroke="#000000" stroke-width="2" stroke-miterlimit="10" pointer-events="all" style="fill: light-dark(rgb(0, 0, 0), rgb(255, 255, 255)); stroke: light-dark(rgb(0, 0, 0), rgb(255, 255, 255));"/>
        </g>
        <g>
            <rect x="160" y="112.5" width="70" height="55" rx="8.25" ry="8.25" fill="#ffe6cc" stroke="#d79b00" pointer-events="all" style="fill: light-dark(rgb(255, 230, 204), rgb(54, 33, 10)); stroke: light-dark(rgb(215, 155, 0), rgb(153, 101, 0));"/>
        </g>
        <g>
            <g transform="translate(-0.5 -0.5)">
                <switch>
                    <foreignObject style="overflow: visible; text-align: left;" pointer-events="none" width="100%" height="100%" requiredFeatures="http://www.w3.org/TR/SVG11/feature#Extensibility">
                        <div xmlns="http://www.w3.org/1999/xhtml" style="display: flex; align-items: unsafe center; justify-content: unsafe center; width: 68px; height: 1px; padding-top: 140px; margin-left: 161px;">
                            <div style="box-sizing: border-box; font-size: 0; text-align: center; color: #000000; ">
                                <div style="display: inline-block; font-size: 12px; font-family: &quot;Helvetica&quot;; color: light-dark(#000000, #ffffff); line-height: 1.2; pointer-events: all; white-space: normal; word-wrap: normal; ">
                                    I2C driver
                                </div>
                            </div>
                        </div>
                    </foreignObject>
                    <text x="195" y="144" fill="light-dark(#000000, #ffffff)" font-family="&quot;Helvetica&quot;" font-size="12px" text-anchor="middle">
                        I2C driver
                    </text>
                </switch>
            </g>
        </g>
        <g>
            <path d="M 310 133.5 L 570 133.5" fill="none" stroke="#000099" stroke-miterlimit="10" pointer-events="stroke" style="stroke: light-dark(rgb(0, 0, 153), rgb(218, 218, 255));"/>
        </g>
        <g>
            <path d="M 310 154 L 570 154" fill="none" stroke="#660066" stroke-miterlimit="10" pointer-events="stroke" style="stroke: light-dark(rgb(102, 0, 102), rgb(255, 187, 255));"/>
        </g>
        <g>
            <rect x="310" y="112" width="60" height="30" fill="none" stroke="none" pointer-events="all"/>
        </g>
        <g>
            <g transform="translate(-0.5 -0.5)">
                <switch>
                    <foreignObject style="overflow: visible; text-align: left;" pointer-events="none" width="100%" height="100%" requiredFeatures="http://www.w3.org/TR/SVG11/feature#Extensibility">
                        <div xmlns="http://www.w3.org/1999/xhtml" style="display: flex; align-items: unsafe center; justify-content: unsafe center; width: 58px; height: 1px; padding-top: 127px; margin-left: 311px;">
                            <div style="box-sizing: border-box; font-size: 0; text-align: center; color: #000000; ">
                                <div style="display: inline-block; font-size: 12px; font-family: &quot;Helvetica&quot;; color: light-dark(#000000, #ffffff); line-height: 1.2; pointer-events: all; white-space: normal; word-wrap: normal; ">
                                    SDA
                                </div>
                            </div>
                        </div>
                    </foreignObject>
                    <text x="340" y="131" fill="light-dark(#000000, #ffffff)" font-family="&quot;Helvetica&quot;" font-size="12px" text-anchor="middle">
                        SDA
                    </text>
                </switch>
            </g>
        </g>
        <g>
            <rect x="310" y="132" width="60" height="30" fill="none" stroke="none" pointer-events="all"/>
        </g>
        <g>
            <g transform="translate(-0.5 -0.5)">
                <switch>
                    <foreignObject style="overflow: visible; text-align: left;" pointer-events="none" width="100%" height="100%" requiredFeatures="http://www.w3.org/TR/SVG11/feature#Extensibility">
                        <div xmlns="http://www.w3.org/1999/xhtml" style="display: flex; align-items: unsafe center; justify-content: unsafe center; width: 58px; height: 1px; padding-top: 147px; margin-left: 311px;">
                            <div style="box-sizing: border-box; font-size: 0; text-align: center; color: #000000; ">
                                <div style="display: inline-block; font-size: 12px; font-family: &quot;Helvetica&quot;; color: light-dark(#000000, #ffffff); line-height: 1.2; pointer-events: all; white-space: normal; word-wrap: normal; ">
                                    SCL
                                </div>
                            </div>
                        </div>
                    </foreignObject>
                    <text x="340" y="151" fill="light-dark(#000000, #ffffff)" font-family="&quot;Helvetica&quot;" font-size="12px" text-anchor="middle">
                        SCL
                    </text>
                </switch>
            </g>
        </g>
        <g>
            <rect x="380" y="74" width="50" height="19" fill="none" stroke="none" pointer-events="all"/>
            <path d="M 427.55 88.23 C 427.27 88.23 427.05 88.46 427.05 88.74 L 427.05 91 C 427.05 91.17 427.15 91.34 427.31 91.43 C 427.46 91.52 427.66 91.52 427.81 91.43 C 427.97 91.34 428.07 91.17 428.07 91 L 428.07 88.74 C 428.07 88.6 428.01 88.47 427.92 88.38 C 427.82 88.28 427.69 88.23 427.55 88.23 Z M 425.33 88.23 C 425.05 88.23 424.82 88.46 424.83 88.74 L 424.83 91 C 424.83 91.17 424.92 91.34 425.08 91.43 C 425.24 91.52 425.43 91.52 425.59 91.43 C 425.74 91.34 425.84 91.17 425.84 91 L 425.84 88.74 C 425.84 88.6 425.79 88.47 425.69 88.38 C 425.59 88.28 425.46 88.23 425.33 88.23 Z M 423.1 88.23 C 422.82 88.23 422.6 88.46 422.6 88.74 L 422.6 91 C 422.6 91.27 422.83 91.5 423.11 91.5 C 423.39 91.5 423.61 91.27 423.61 91 L 423.61 88.74 C 423.62 88.6 423.56 88.47 423.47 88.38 C 423.37 88.28 423.24 88.23 423.1 88.23 Z M 420.88 88.23 C 420.74 88.23 420.61 88.29 420.52 88.38 C 420.43 88.48 420.37 88.6 420.38 88.74 L 420.38 91 C 420.38 91.27 420.6 91.5 420.88 91.5 C 421.16 91.5 421.39 91.27 421.39 91 L 421.39 88.74 C 421.39 88.6 421.34 88.47 421.24 88.38 C 421.14 88.28 421.01 88.23 420.88 88.23 Z M 412.13 88.23 C 412 88.23 411.87 88.29 411.78 88.38 C 411.68 88.48 411.63 88.6 411.63 88.74 L 411.63 91 C 411.63 91.17 411.73 91.34 411.89 91.43 C 412.04 91.52 412.24 91.52 412.39 91.43 C 412.55 91.34 412.65 91.17 412.65 91 L 412.65 88.74 C 412.65 88.6 412.6 88.47 412.5 88.38 C 412.4 88.28 412.27 88.23 412.13 88.23 Z M 409.78 88.23 C 409.65 88.23 409.52 88.29 409.43 88.38 C 409.33 88.48 409.28 88.6 409.28 88.74 L 409.28 91 C 409.28 91.27 409.51 91.5 409.79 91.5 C 410.07 91.5 410.3 91.27 410.3 91 L 410.3 88.74 C 410.3 88.6 410.24 88.47 410.15 88.38 C 410.05 88.28 409.92 88.23 409.78 88.23 Z M 407.43 88.23 C 407.3 88.23 407.17 88.29 407.07 88.38 C 406.98 88.48 406.93 88.6 406.93 88.74 L 406.93 91 C 406.93 91.27 407.16 91.5 407.44 91.5 C 407.72 91.5 407.94 91.27 407.94 91 L 407.94 88.74 C 407.95 88.6 407.89 88.47 407.8 88.38 C 407.7 88.28 407.57 88.23 407.43 88.23 Z M 405.08 88.23 C 404.94 88.23 404.82 88.29 404.72 88.38 C 404.63 88.48 404.58 88.6 404.58 88.74 L 404.58 91 C 404.58 91.27 404.81 91.5 405.09 91.5 C 405.37 91.5 405.59 91.27 405.59 91 L 405.59 88.74 C 405.59 88.6 405.54 88.47 405.44 88.38 C 405.35 88.28 405.22 88.23 405.08 88.23 Z M 402.73 88.23 C 402.59 88.23 402.46 88.29 402.37 88.38 C 402.28 88.48 402.23 88.6 402.23 88.74 L 402.23 91 C 402.23 91.27 402.45 91.5 402.73 91.5 C 403.01 91.5 403.24 91.27 403.24 91 L 403.24 88.74 C 403.24 88.6 403.19 88.47 403.09 88.38 C 403 88.28 402.86 88.23 402.73 88.23 Z M 400.37 88.23 C 400.24 88.23 400.11 88.29 400.02 88.38 C 399.93 88.48 399.87 88.6 399.88 88.74 L 399.88 91 C 399.88 91.27 400.1 91.5 400.38 91.5 C 400.66 91.5 400.89 91.27 400.89 91 L 400.89 88.74 C 400.89 88.6 400.84 88.47 400.74 88.38 C 400.64 88.28 400.51 88.23 400.37 88.23 Z M 398.02 88.23 C 397.89 88.23 397.76 88.29 397.67 88.38 C 397.57 88.48 397.52 88.6 397.52 88.74 L 397.52 91 C 397.52 91.27 397.75 91.5 398.03 91.5 C 398.31 91.5 398.54 91.27 398.54 91 L 398.54 88.74 C 398.54 88.6 398.48 88.47 398.39 88.38 C 398.29 88.28 398.16 88.23 398.02 88.23 Z M 395.67 88.23 C 395.54 88.23 395.41 88.29 395.32 88.38 C 395.22 88.48 395.17 88.6 395.17 88.74 L 395.17 91 C 395.17 91.27 395.4 91.5 395.68 91.5 C 395.96 91.5 396.18 91.27 396.18 91 L 396.18 88.74 C 396.19 88.6 396.13 88.47 396.04 88.38 C 395.94 88.28 395.81 88.23 395.67 88.23 Z M 393.32 88.23 C 393.18 88.23 393.06 88.29 392.96 88.38 C 392.87 88.48 392.82 88.6 392.82 88.74 L 392.82 91 C 392.82 91.27 393.05 91.5 393.33 91.5 C 393.61 91.5 393.83 91.27 393.83 91 L 393.83 88.74 C 393.83 88.6 393.78 88.47 393.68 88.38 C 393.59 88.28 393.46 88.23 393.32 88.23 Z M 390.97 88.23 C 390.69 88.23 390.46 88.46 390.47 88.74 L 390.47 91 C 390.47 91.27 390.69 91.5 390.97 91.5 C 391.25 91.5 391.48 91.27 391.48 91 L 391.48 88.74 C 391.48 88.6 391.43 88.47 391.33 88.38 C 391.23 88.28 391.1 88.23 390.97 88.23 Z M 388.62 88.23 C 388.48 88.23 388.35 88.29 388.26 88.38 C 388.17 88.48 388.11 88.6 388.12 88.74 L 388.12 91 C 388.12 91.27 388.34 91.5 388.62 91.5 C 388.9 91.5 389.13 91.27 389.13 91 L 389.13 88.74 C 389.13 88.6 389.08 88.47 388.98 88.38 C 388.88 88.28 388.75 88.23 388.62 88.23 Z M 386.26 88.23 C 385.98 88.23 385.76 88.46 385.76 88.74 L 385.76 91 C 385.76 91.27 385.99 91.5 386.27 91.5 C 386.55 91.5 386.78 91.27 386.78 91 L 386.78 88.74 C 386.78 88.6 386.72 88.47 386.63 88.38 C 386.53 88.28 386.4 88.23 386.26 88.23 Z M 426.9 76.68 C 426.72 76.68 426.56 76.78 426.46 76.93 C 426.37 77.09 426.37 77.28 426.46 77.43 C 426.56 77.59 426.72 77.69 426.9 77.69 L 427.49 77.69 C 427.67 77.69 427.84 77.59 427.93 77.43 C 428.02 77.28 428.02 77.09 427.93 76.93 C 427.84 76.78 427.67 76.68 427.49 76.68 Z M 426.9 78.48 C 426.62 78.48 426.4 78.71 426.4 78.98 C 426.4 79.26 426.62 79.49 426.9 79.49 L 427.49 79.49 C 427.77 79.49 427.99 79.26 427.99 78.98 C 427.99 78.71 427.77 78.48 427.49 78.48 Z M 426.9 80.28 C 426.72 80.28 426.56 80.38 426.46 80.53 C 426.37 80.69 426.37 80.88 426.46 81.03 C 426.56 81.19 426.72 81.29 426.9 81.29 L 427.49 81.29 C 427.67 81.29 427.84 81.19 427.93 81.03 C 428.02 80.88 428.02 80.69 427.93 80.53 C 427.84 80.38 427.67 80.28 427.49 80.28 Z M 426.9 82.08 C 426.62 82.08 426.4 82.3 426.4 82.58 C 426.4 82.86 426.62 83.08 426.9 83.08 L 427.49 83.08 C 427.77 83.08 427.99 82.86 427.99 82.58 C 427.99 82.3 427.77 82.08 427.49 82.08 Z M 426.9 83.88 C 426.62 83.88 426.4 84.1 426.4 84.38 C 426.4 84.66 426.62 84.88 426.9 84.88 L 427.49 84.88 C 427.77 84.88 427.99 84.66 427.99 84.38 C 427.99 84.1 427.77 83.88 427.49 83.88 Z M 426.9 85.68 C 426.62 85.68 426.4 85.9 426.4 86.18 C 426.4 86.46 426.62 86.68 426.9 86.68 L 427.49 86.68 C 427.77 86.68 427.99 86.46 427.99 86.18 C 427.99 85.9 427.77 85.68 427.49 85.68 Z M 418.63 76.68 C 418.44 76.68 418.28 76.78 418.19 76.93 C 418.1 77.09 418.1 77.28 418.19 77.43 C 418.28 77.59 418.44 77.69 418.63 77.69 L 419.21 77.69 C 419.39 77.69 419.56 77.59 419.65 77.43 C 419.74 77.28 419.74 77.09 419.65 76.93 C 419.56 76.78 419.39 76.68 419.21 76.68 Z M 418.63 78.48 C 418.35 78.48 418.12 78.71 418.12 78.98 C 418.12 79.26 418.35 79.49 418.63 79.49 L 419.21 79.49 C 419.49 79.49 419.72 79.26 419.72 78.98 C 419.72 78.71 419.49 78.48 419.21 78.48 Z M 418.63 80.28 C 418.44 80.28 418.28 80.38 418.19 80.53 C 418.1 80.69 418.1 80.88 418.19 81.03 C 418.28 81.19 418.44 81.29 418.63 81.29 L 419.21 81.29 C 419.39 81.29 419.56 81.19 419.65 81.03 C 419.74 80.88 419.74 80.69 419.65 80.53 C 419.56 80.38 419.39 80.28 419.21 80.28 Z M 418.63 82.08 C 418.35 82.08 418.12 82.3 418.12 82.58 C 418.12 82.86 418.35 83.08 418.63 83.08 L 419.21 83.08 C 419.49 83.08 419.72 82.86 419.72 82.58 C 419.72 82.3 419.49 82.08 419.21 82.08 Z M 418.63 83.88 C 418.35 83.88 418.12 84.1 418.12 84.38 C 418.12 84.66 418.35 84.88 418.63 84.88 L 419.21 84.88 C 419.49 84.88 419.72 84.66 419.72 84.38 C 419.72 84.1 419.49 83.88 419.21 83.88 Z M 418.63 85.68 C 418.35 85.68 418.12 85.9 418.12 86.18 C 418.12 86.46 418.35 86.68 418.63 86.68 L 419.21 86.68 C 419.49 86.68 419.72 86.46 419.72 86.18 C 419.72 85.9 419.49 85.68 419.21 85.68 Z M 420.15 76.23 L 425.96 76.23 L 425.96 87.13 L 420.15 87.13 Z M 414.82 76.68 C 414.64 76.68 414.48 76.78 414.39 76.93 C 414.29 77.09 414.29 77.28 414.39 77.43 C 414.48 77.59 414.64 77.69 414.82 77.69 L 415.41 77.69 C 415.59 77.69 415.76 77.59 415.85 77.43 C 415.94 77.28 415.94 77.09 415.85 76.93 C 415.76 76.78 415.59 76.68 415.41 76.68 Z M 414.82 78.48 C 414.54 78.48 414.32 78.71 414.32 78.98 C 414.32 79.26 414.54 79.49 414.82 79.49 L 415.41 79.49 C 415.69 79.49 415.92 79.26 415.92 78.98 C 415.92 78.71 415.69 78.48 415.41 78.48 Z M 414.82 80.28 C 414.64 80.28 414.48 80.38 414.39 80.53 C 414.29 80.69 414.29 80.88 414.39 81.03 C 414.48 81.19 414.64 81.29 414.82 81.29 L 415.41 81.29 C 415.59 81.29 415.76 81.19 415.85 81.03 C 415.94 80.88 415.94 80.69 415.85 80.53 C 415.76 80.38 415.59 80.28 415.41 80.28 Z M 414.82 82.08 C 414.54 82.08 414.32 82.3 414.32 82.58 C 414.32 82.86 414.54 83.08 414.82 83.08 L 415.41 83.08 C 415.69 83.08 415.92 82.86 415.92 82.58 C 415.92 82.3 415.69 82.08 415.41 82.08 Z M 414.82 83.88 C 414.54 83.88 414.32 84.1 414.32 84.38 C 414.32 84.66 414.54 84.88 414.82 84.88 L 415.41 84.88 C 415.69 84.88 415.92 84.66 415.92 84.38 C 415.92 84.1 415.69 83.88 415.41 83.88 Z M 414.82 85.68 C 414.54 85.68 414.32 85.9 414.32 86.18 C 414.32 86.46 414.54 86.68 414.82 86.68 L 415.41 86.68 C 415.69 86.68 415.92 86.46 415.92 86.18 C 415.92 85.9 415.69 85.68 415.41 85.68 Z M 406.55 76.68 C 406.37 76.68 406.2 76.78 406.11 76.93 C 406.02 77.09 406.02 77.28 406.11 77.43 C 406.2 77.59 406.37 77.69 406.55 77.69 L 407.13 77.69 C 407.31 77.69 407.48 77.59 407.57 77.43 C 407.66 77.28 407.66 77.09 407.57 76.93 C 407.48 76.78 407.31 76.68 407.13 76.68 Z M 406.55 78.48 C 406.27 78.48 406.04 78.71 406.04 78.98 C 406.04 79.26 406.27 79.49 406.55 79.49 L 407.13 79.49 C 407.41 79.49 407.64 79.26 407.64 78.98 C 407.64 78.71 407.41 78.48 407.13 78.48 Z M 406.55 80.28 C 406.37 80.28 406.2 80.38 406.11 80.53 C 406.02 80.69 406.02 80.88 406.11 81.03 C 406.2 81.19 406.37 81.29 406.55 81.29 L 407.13 81.29 C 407.31 81.29 407.48 81.19 407.57 81.03 C 407.66 80.88 407.66 80.69 407.57 80.53 C 407.48 80.38 407.31 80.28 407.13 80.28 Z M 406.55 82.08 C 406.27 82.08 406.04 82.3 406.04 82.58 C 406.04 82.86 406.27 83.08 406.55 83.08 L 407.13 83.08 C 407.41 83.08 407.64 82.86 407.64 82.58 C 407.64 82.3 407.41 82.08 407.13 82.08 Z M 406.55 83.88 C 406.27 83.88 406.04 84.1 406.04 84.38 C 406.04 84.66 406.27 84.88 406.55 84.88 L 407.13 84.88 C 407.41 84.88 407.64 84.66 407.64 84.38 C 407.64 84.1 407.41 83.88 407.13 83.88 Z M 406.55 85.68 C 406.27 85.68 406.04 85.9 406.04 86.18 C 406.04 86.46 406.27 86.68 406.55 86.68 L 407.13 86.68 C 407.41 86.68 407.64 86.46 407.64 86.18 C 407.64 85.9 407.41 85.68 407.13 85.68 Z M 408.07 76.23 L 413.88 76.23 L 413.88 87.13 L 408.07 87.13 Z M 402.66 76.68 C 402.48 76.68 402.31 76.78 402.22 76.93 C 402.13 77.09 402.13 77.28 402.22 77.43 C 402.31 77.59 402.48 77.69 402.66 77.69 L 403.24 77.69 C 403.43 77.69 403.59 77.59 403.68 77.43 C 403.77 77.28 403.77 77.09 403.68 76.93 C 403.59 76.78 403.43 76.68 403.24 76.68 Z M 402.66 78.48 C 402.38 78.48 402.15 78.71 402.15 78.98 C 402.15 79.26 402.38 79.49 402.66 79.49 L 403.24 79.49 C 403.52 79.49 403.75 79.26 403.75 78.98 C 403.75 78.71 403.52 78.48 403.24 78.48 Z M 402.66 80.28 C 402.48 80.28 402.31 80.38 402.22 80.53 C 402.13 80.69 402.13 80.88 402.22 81.03 C 402.31 81.19 402.48 81.29 402.66 81.29 L 403.24 81.29 C 403.43 81.29 403.59 81.19 403.68 81.03 C 403.77 80.88 403.77 80.69 403.68 80.53 C 403.59 80.38 403.43 80.28 403.24 80.28 Z M 402.66 82.08 C 402.38 82.08 402.15 82.3 402.15 82.58 C 402.15 82.86 402.38 83.08 402.66 83.08 L 403.24 83.08 C 403.52 83.08 403.75 82.86 403.75 82.58 C 403.75 82.3 403.52 82.08 403.24 82.08 Z M 402.66 83.88 C 402.38 83.88 402.15 84.1 402.15 84.38 C 402.15 84.66 402.38 84.88 402.66 84.88 L 403.24 84.88 C 403.52 84.88 403.75 84.66 403.75 84.38 C 403.75 84.1 403.52 83.88 403.24 83.88 Z M 402.66 85.68 C 402.38 85.68 402.15 85.9 402.15 86.18 C 402.15 86.46 402.38 86.68 402.66 86.68 L 403.24 86.68 C 403.52 86.68 403.75 86.46 403.75 86.18 C 403.75 85.9 403.52 85.68 403.24 85.68 Z M 394.38 76.68 C 394.2 76.68 394.03 76.78 393.94 76.93 C 393.85 77.09 393.85 77.28 393.94 77.43 C 394.03 77.59 394.2 77.69 394.38 77.69 L 394.96 77.69 C 395.15 77.69 395.31 77.59 395.4 77.43 C 395.49 77.28 395.49 77.09 395.4 76.93 C 395.31 76.78 395.15 76.68 394.96 76.68 Z M 394.38 78.48 C 394.1 78.48 393.88 78.71 393.88 78.98 C 393.88 79.26 394.1 79.49 394.38 79.49 L 394.96 79.49 C 395.24 79.49 395.47 79.26 395.47 78.98 C 395.47 78.71 395.24 78.48 394.96 78.48 Z M 394.38 80.28 C 394.2 80.28 394.03 80.38 393.94 80.53 C 393.85 80.69 393.85 80.88 393.94 81.03 C 394.03 81.19 394.2 81.29 394.38 81.29 L 394.96 81.29 C 395.15 81.29 395.31 81.19 395.4 81.03 C 395.49 80.88 395.49 80.69 395.4 80.53 C 395.31 80.38 395.15 80.28 394.96 80.28 Z M 394.38 82.08 C 394.1 82.08 393.88 82.3 393.88 82.58 C 393.88 82.86 394.1 83.08 394.38 83.08 L 394.96 83.08 C 395.24 83.08 395.47 82.86 395.47 82.58 C 395.47 82.3 395.24 82.08 394.96 82.08 Z M 394.38 83.88 C 394.1 83.88 393.88 84.1 393.88 84.38 C 393.88 84.66 394.1 84.88 394.38 84.88 L 394.96 84.88 C 395.24 84.88 395.47 84.66 395.47 84.38 C 395.47 84.1 395.24 83.88 394.96 83.88 Z M 394.38 85.68 C 394.1 85.68 393.88 85.9 393.88 86.18 C 393.88 86.46 394.1 86.68 394.38 86.68 L 394.96 86.68 C 395.24 86.68 395.47 86.46 395.47 86.18 C 395.47 85.9 395.24 85.68 394.96 85.68 Z M 395.91 76.23 L 401.72 76.23 L 401.72 87.13 L 395.91 87.13 Z M 390.56 76.68 C 390.37 76.68 390.21 76.78 390.12 76.93 C 390.03 77.09 390.03 77.28 390.12 77.43 C 390.21 77.59 390.37 77.69 390.56 77.69 L 391.14 77.69 C 391.32 77.69 391.49 77.59 391.58 77.43 C 391.67 77.28 391.67 77.09 391.58 76.93 C 391.49 76.78 391.32 76.68 391.14 76.68 Z M 390.56 78.48 C 390.28 78.48 390.05 78.71 390.05 78.98 C 390.05 79.26 390.28 79.49 390.56 79.49 L 391.14 79.49 C 391.42 79.49 391.65 79.26 391.65 78.98 C 391.65 78.71 391.42 78.48 391.14 78.48 Z M 390.56 80.28 C 390.37 80.28 390.21 80.38 390.12 80.53 C 390.03 80.69 390.03 80.88 390.12 81.03 C 390.21 81.19 390.37 81.29 390.56 81.29 L 391.14 81.29 C 391.32 81.29 391.49 81.19 391.58 81.03 C 391.67 80.88 391.67 80.69 391.58 80.53 C 391.49 80.38 391.32 80.28 391.14 80.28 Z M 390.56 82.08 C 390.28 82.08 390.05 82.3 390.05 82.58 C 390.05 82.86 390.28 83.08 390.56 83.08 L 391.14 83.08 C 391.42 83.08 391.65 82.86 391.65 82.58 C 391.65 82.3 391.42 82.08 391.14 82.08 Z M 390.56 83.88 C 390.28 83.88 390.05 84.1 390.05 84.38 C 390.05 84.66 390.28 84.88 390.56 84.88 L 391.14 84.88 C 391.42 84.88 391.65 84.66 391.65 84.38 C 391.65 84.1 391.42 83.88 391.14 83.88 Z M 390.56 85.68 C 390.28 85.68 390.05 85.9 390.05 86.18 C 390.05 86.46 390.28 86.68 390.56 86.68 L 391.14 86.68 C 391.42 86.68 391.65 86.46 391.65 86.18 C 391.65 85.9 391.42 85.68 391.14 85.68 Z M 382.28 76.68 C 382.09 76.68 381.93 76.78 381.84 76.93 C 381.75 77.09 381.75 77.28 381.84 77.43 C 381.93 77.59 382.09 77.69 382.28 77.69 L 382.86 77.69 C 383.04 77.69 383.21 77.59 383.3 77.43 C 383.39 77.28 383.39 77.09 383.3 76.93 C 383.21 76.78 383.04 76.68 382.86 76.68 Z M 382.28 78.48 C 382 78.48 381.77 78.71 381.77 78.98 C 381.77 79.26 382 79.49 382.28 79.49 L 382.86 79.49 C 383.14 79.49 383.37 79.26 383.37 78.98 C 383.37 78.71 383.14 78.48 382.86 78.48 Z M 382.28 80.28 C 382.09 80.28 381.93 80.38 381.84 80.53 C 381.75 80.69 381.75 80.88 381.84 81.03 C 381.93 81.19 382.09 81.29 382.28 81.29 L 382.86 81.29 C 383.04 81.29 383.21 81.19 383.3 81.03 C 383.39 80.88 383.39 80.69 383.3 80.53 C 383.21 80.38 383.04 80.28 382.86 80.28 Z M 382.28 82.08 C 382 82.08 381.77 82.3 381.77 82.58 C 381.77 82.86 382 83.08 382.28 83.08 L 382.86 83.08 C 383.14 83.08 383.37 82.86 383.37 82.58 C 383.37 82.3 383.14 82.08 382.86 82.08 Z M 382.28 83.88 C 382 83.88 381.77 84.1 381.77 84.38 C 381.77 84.66 382 84.88 382.28 84.88 L 382.86 84.88 C 383.14 84.88 383.37 84.66 383.37 84.38 C 383.37 84.1 383.14 83.88 382.86 83.88 Z M 382.28 85.68 C 382 85.68 381.77 85.9 381.77 86.18 C 381.77 86.46 382 86.68 382.28 86.68 L 382.86 86.68 C 383.14 86.68 383.37 86.46 383.37 86.18 C 383.37 85.9 383.14 85.68 382.86 85.68 Z M 383.8 76.23 L 389.61 76.23 L 389.61 87.13 L 383.8 87.13 Z M 380 74 L 380 74.5 L 380 90.33 L 383.6 90.33 L 383.6 93 L 414.83 93 L 414.83 90.33 L 418.22 90.33 L 418.22 93 L 430 93 L 430 74 Z M 381.01 75 L 428.99 75 L 428.99 92 L 419.24 92 L 419.24 89.33 L 413.82 89.33 L 413.82 92 L 384.62 92 L 384.62 89.33 L 381.01 89.33 Z" fill="#434445" stroke="none" pointer-events="all" style="fill: light-dark(rgb(67, 68, 69), rgb(178, 179, 180));"/>
        </g>
        <g>
            <path d="M 397.5 174 L 397.58 154" fill="none" stroke="#660066" stroke-miterlimit="10" pointer-events="stroke" style="stroke: light-dark(rgb(102, 0, 102), rgb(255, 187, 255));"/>
        </g>
        <g>
            <rect x="380" y="174" width="70" height="60" rx="9" ry="9" fill="#e1d5e7" stroke="#9673a6" pointer-events="all" style="fill: light-dark(rgb(225, 213, 231), rgb(57, 47, 63)); stroke: light-dark(rgb(150, 115, 166), rgb(149, 119, 163));"/>
        </g>
        <g>
            <g transform="translate(-0.5 -0.5)">
                <switch>
                    <foreignObject style="overflow: visible; text-align: left;" pointer-events="none" width="100%" height="100%" requiredFeatures="http://www.w3.org/TR/SVG11/feature#Extensibility">
                        <div xmlns="http://www.w3.org/1999/xhtml" style="display: flex; align-items: unsafe flex-start; justify-content: unsafe center; width: 68px; height: 1px; padding-top: 181px; margin-left: 381px;">
                            <div style="box-sizing: border-box; font-size: 0; text-align: center; color: #000000; ">
                                <div style="display: inline-block; font-size: 12px; font-family: &quot;Helvetica&quot;; color: light-dark(#000000, #ffffff); line-height: 1.2; pointer-events: all; white-space: normal; word-wrap: normal; ">
                                    RTC
                                </div>
                            </div>
                        </div>
                    </foreignObject>
                    <text x="415" y="193" fill="light-dark(#000000, #ffffff)" font-family="&quot;Helvetica&quot;" font-size="12px" text-anchor="middle">
                        RTC
                    </text>
                </switch>
            </g>
        </g>
        <g>
            <ellipse cx="415" cy="214" rx="15" ry="15" fill="#ffffff" stroke="#0080f0" stroke-width="2" pointer-events="all" style="fill: light-dark(#ffffff, var(--ge-dark-color, #121212)); stroke: light-dark(rgb(0, 128, 240), rgb(50, 160, 255));"/>
            <path d="M 415 200.5 L 415 214 L 407.5 214" fill="none" stroke="#0080f0" stroke-width="2" stroke-miterlimit="10" pointer-events="all" style="stroke: light-dark(rgb(0, 128, 240), rgb(50, 160, 255));"/>
        </g>
        <g style="filter: drop-shadow(light-dark(rgba(0, 0, 0, 0.25), rgba(237, 237, 237, 0.25)) 2px 3px 2px);">
            <rect x="470" y="4" width="70" height="100" rx="11" ry="11" fill="#e1d5e7" stroke="#9673a6" pointer-events="all" style="fill: light-dark(rgb(225, 213, 231), rgb(57, 47, 63)); stroke: light-dark(rgb(150, 115, 166), rgb(149, 119, 163));"/>
        </g>
        <g>
            <g transform="translate(-0.5 -0.5)">
                <switch>
                    <foreignObject style="overflow: visible; text-align: left;" pointer-events="none" width="100%" height="100%" requiredFeatures="http://www.w3.org/TR/SVG11/feature#Extensibility">
                        <div xmlns="http://www.w3.org/1999/xhtml" style="display: flex; align-items: unsafe flex-end; justify-content: unsafe center; width: 68px; height: 1px; padding-top: 99px; margin-left: 471px;">
                            <div style="box-sizing: border-box; font-size: 0; text-align: center; color: #000000; ">
                                <div style="display: inline-block; font-size: 12px; font-family: &quot;Helvetica&quot;; color: light-dark(#000000, #ffffff); line-height: 1.2; pointer-events: all; white-space: normal; word-wrap: normal; ">
                                    PMIC
                                </div>
                            </div>
                        </div>
                    </foreignObject>
                    <text x="505" y="99" fill="light-dark(#000000, #ffffff)" font-family="&quot;Helvetica&quot;" font-size="12px" text-anchor="middle">
                        PMIC
                    </text>
                </switch>
            </g>
        </g>
        <g>
            <path d="M 484.92 16.5 C 482.2 16.5 480 18.69 480 21.41 L 480 56.59 C 480 59.31 482.2 61.5 484.92 61.5 L 520.08 61.5 C 522.81 61.5 525 59.31 525 56.59 L 525 51.4 L 530 51.4 L 530 46.64 L 525 46.64 L 525 41.38 L 530 41.38 L 530 36.62 L 525 36.62 L 525 31.37 L 530 31.37 L 530 26.6 L 525 26.6 L 525 21.41 C 525 18.69 522.81 16.5 520.08 16.5 Z" fill="#757575" stroke="none" pointer-events="all" style="fill: light-dark(rgb(117, 117, 117), rgb(137, 137, 137));"/>
            <path d="M 484.84 21.34 L 484.84 56.6 L 520.15 56.6 L 520.15 21.34 Z M 505.08 26.42 L 515.01 26.42 L 515.01 33.97 L 505.08 33.97 Z M 490.03 26.42 L 502.5 26.42 L 502.5 38.87 L 490.03 38.87 Z M 505.08 36.45 L 515.01 36.45 L 515.01 51.49 L 505.08 51.49 Z M 490.03 41.6 L 502.5 41.6 L 502.5 51.49 L 490.03 51.49 Z" fill="#ffffff" stroke="none" pointer-events="all" style="fill: light-dark(rgb(255, 255, 255), rgb(18, 18, 18));"/>
        </g>
        <g>
            <path d="M 490 104 L 490 134" fill="none" stroke="#000099" stroke-miterlimit="10" pointer-events="stroke" style="stroke: light-dark(rgb(0, 0, 153), rgb(218, 218, 255));"/>
        </g>
        <g>
            <path d="M 407.9 104 L 408 154" fill="none" stroke="#660066" stroke-miterlimit="10" pointer-events="stroke" style="stroke: light-dark(rgb(102, 0, 102), rgb(255, 187, 255));"/>
        </g>
        <g>
            <path d="M 430 134 L 430.1 174" fill="none" stroke="#000099" stroke-miterlimit="10" pointer-events="stroke" style="stroke: light-dark(rgb(0, 0, 153), rgb(218, 218, 255));"/>
        </g>
        <g>
            <path d="M 510 104 L 510.1 154" fill="none" stroke="#660066" stroke-miterlimit="10" pointer-events="stroke" style="stroke: light-dark(rgb(102, 0, 102), rgb(255, 187, 255));"/>
        </g>
    </g>
    <switch>
        <g requiredFeatures="http://www.w3.org/TR/SVG11/feature#Extensibility"/>
        <a transform="translate(0,-5)" xlink:href="https://www.drawio.com/doc/faq/svg-export-text-problems" target="_blank">
            <text text-anchor="middle" font-size="10px" x="50%" y="100%">
                Text is not SVG - cannot display
            </text>
        </a>
    </switch>
</svg>